<svg width="78" height="35" viewBox="0 0 78 35" fill="none" xmlns="http://www.w3.org/2000/svg">
<path d="M74.6015 33.7554L72.8086 30.6218L73.7616 30.628L75.0232 32.9962L76.2995 30.6444L77.2525 30.6505L75.4431 33.7555L75.4364 34.7882L74.5949 34.7828L74.6015 33.7554Z" fill="white"/>
<path d="M68.5841 32.644C68.586 32.3485 68.6435 32.0736 68.7567 31.8195C68.8698 31.5636 69.0323 31.3425 69.2441 31.1563C69.4577 30.9683 69.7171 30.8213 70.0222 30.7153C70.329 30.6094 70.6754 30.5576 71.0612 30.5601C71.3992 30.5623 71.7087 30.5988 71.9896 30.6696C72.2724 30.7387 72.5345 30.844 72.7761 30.9853L72.3844 31.6199C72.3121 31.5717 72.2283 31.5287 72.133 31.4909C72.0394 31.4531 71.9388 31.4215 71.831 31.396C71.7249 31.3688 71.6145 31.3477 71.4995 31.3328C71.3863 31.3179 71.274 31.3101 71.1625 31.3094C70.8935 31.3077 70.6535 31.3397 70.4425 31.4056C70.2314 31.4698 70.053 31.5615 69.9071 31.6809C69.763 31.7986 69.6523 31.9403 69.5751 32.1062C69.4997 32.2703 69.4614 32.4515 69.4601 32.6497C69.4588 32.855 69.4965 33.0437 69.5733 33.2159C69.65 33.388 69.7615 33.5374 69.9075 33.664C70.0554 33.7889 70.2353 33.8874 70.4472 33.9595C70.6609 34.0299 70.9022 34.066 71.1712 34.0678C71.2934 34.0685 71.4146 34.0605 71.5351 34.0436C71.6556 34.0266 71.7716 34.0035 71.8833 33.9741C71.9968 33.943 72.1059 33.9065 72.2106 33.8647C72.3153 33.8212 72.4129 33.774 72.5035 33.7233L72.887 34.3629C72.6595 34.5066 72.3968 34.619 72.099 34.7003C71.8011 34.7798 71.485 34.8184 71.1505 34.8163C70.724 34.8135 70.35 34.7562 70.0286 34.6444C69.7072 34.5308 69.4392 34.3769 69.2246 34.1826C69.0099 33.9865 68.8486 33.7572 68.7405 33.4946C68.6343 33.2302 68.5821 32.9466 68.5841 32.644Z" fill="white"/>
<path d="M63.8965 30.5642L64.738 30.5696L67.3149 31.9402L67.3236 30.5864L68.1652 30.5918L68.1383 34.741L67.2968 34.7356L67.3091 32.8322L64.7322 31.4696L64.7112 34.7189L63.8697 34.7134L63.8965 30.5642Z" fill="white"/>
<path d="M59.8672 30.5381L63.4005 30.5609L63.3958 31.2989L60.7039 31.2815L60.6986 32.1098L63.0825 32.1252L63.078 32.818L60.6941 32.8026L60.6867 33.9574L63.4342 33.9752L63.4295 34.7105L59.8404 34.6873L59.8672 30.5381Z" fill="white"/>
<path d="M54.6232 32.5404C54.6251 32.2484 54.6817 31.9762 54.7931 31.7238C54.9045 31.4697 55.0661 31.2495 55.2779 31.0633C55.4897 30.8771 55.749 30.7309 56.0559 30.625C56.3645 30.519 56.7171 30.4673 57.1135 30.4699C57.2569 30.4708 57.4002 30.4797 57.5434 30.4965C57.6884 30.5116 57.8308 30.5356 57.9704 30.5683C58.1117 30.6011 58.2486 30.6427 58.381 30.6931C58.5152 30.7417 58.6423 30.8001 58.7622 30.8681L58.3705 31.5027C58.2982 31.4598 58.2162 31.4212 58.1244 31.387C58.0326 31.351 57.9336 31.3211 57.8276 31.2975C57.7233 31.272 57.6146 31.2527 57.5014 31.2396C57.39 31.2265 57.2777 31.2196 57.1644 31.2188C56.9025 31.2171 56.6687 31.2493 56.4629 31.3152C56.2572 31.3793 56.0832 31.4711 55.9408 31.5906C55.7985 31.7082 55.6896 31.85 55.6142 32.0159C55.5388 32.1817 55.5004 32.3638 55.4992 32.562C55.4978 32.7673 55.5356 32.956 55.6123 33.1282C55.6891 33.3004 55.7987 33.4489 55.9413 33.5737C56.0838 33.6985 56.2566 33.7969 56.4597 33.869C56.6628 33.9394 56.89 33.9754 57.1413 33.977C57.3413 33.9783 57.5246 33.9573 57.6912 33.9142C57.8579 33.8692 58.0034 33.8056 58.1278 33.7232C58.2523 33.6408 58.3538 33.5415 58.4324 33.4252C58.511 33.3071 58.5632 33.1747 58.589 33.028L57.1395 33.0186L57.144 32.3257L59.35 32.34L59.35 32.3426L59.3527 32.34C59.3955 32.5527 59.4075 32.7598 59.3885 32.9615C59.3712 33.1613 59.324 33.3504 59.2468 33.5287C59.1713 33.7052 59.0676 33.8673 58.9357 34.0151C58.8037 34.1629 58.6463 34.2902 58.4633 34.397C58.2803 34.502 58.0727 34.5839 57.8405 34.6425C57.6083 34.6994 57.3541 34.727 57.078 34.7252C56.6922 34.7227 56.3466 34.6639 56.0412 34.5486C55.7375 34.4334 55.4801 34.2769 55.269 34.079C55.0579 33.8812 54.8966 33.6501 54.785 33.3857C54.6752 33.1213 54.6213 32.8395 54.6232 32.5404Z" fill="white"/>
<path d="M51.8645 30.4865L52.7565 30.4922L54.7366 34.6544L53.8526 34.6487L53.5253 33.9484L51.1016 33.9327L50.7759 34.6288L49.8892 34.6231L51.8645 30.4865ZM53.1979 33.2534L52.3128 31.3628L51.4273 33.2419L53.1979 33.2534Z" fill="white"/>
<path d="M45.5508 30.4456L46.3923 30.451L46.3703 33.8622L48.7833 33.8778L48.7786 34.6158L45.524 34.5948L45.5508 30.4456Z" fill="white"/>
<path d="M42.4973 30.4259L43.3893 30.4317L45.3694 34.5939L44.4854 34.5882L44.1581 33.8878L41.7344 33.8722L41.4087 34.5683L40.522 34.5625L42.4973 30.4259ZM43.8307 33.1928L42.9456 31.3022L42.0601 33.1814L43.8307 33.1928Z" fill="white"/>
<path d="M38.2926 31.1368L36.7609 31.1269L36.7656 30.3889L40.6706 30.4142L40.6658 31.1521L39.1341 31.1422L39.1121 34.5535L38.2705 34.548L38.2926 31.1368Z" fill="white"/>
<path d="M35.6152 30.3813L36.4621 30.3868L36.4353 34.536L35.5884 34.5306L35.6152 30.3813Z" fill="white"/>
<path d="M30.4768 32.3844C30.4786 32.0924 30.5353 31.8202 30.6466 31.5678C30.758 31.3137 30.9196 31.0935 31.1314 30.9073C31.3432 30.721 31.6026 30.5749 31.9094 30.469C32.2181 30.363 32.5706 30.3113 32.967 30.3139C33.1104 30.3148 33.2537 30.3237 33.3969 30.3405C33.5419 30.3556 33.6843 30.3796 33.8239 30.4123C33.9652 30.4451 34.1021 30.4867 34.2346 30.5371C34.3687 30.5857 34.4958 30.6441 34.6157 30.7121L34.224 31.3467C34.1517 31.3038 34.0697 31.2652 33.9779 31.231C33.8861 31.195 33.7872 31.1651 33.6811 31.1414C33.5769 31.116 33.4681 31.0967 33.355 31.0836C33.2435 31.0705 33.1312 31.0636 33.0179 31.0628C32.756 31.0611 32.5222 31.0933 32.3165 31.1592C32.1107 31.2233 31.9367 31.3151 31.7943 31.4346C31.652 31.5522 31.5431 31.694 31.4677 31.8599C31.3923 32.0257 31.354 32.2078 31.3527 32.406C31.3514 32.6113 31.3891 32.8 31.4658 32.9722C31.5426 33.1444 31.6522 33.2929 31.7948 33.4177C31.9373 33.5425 32.1102 33.6409 32.3132 33.713C32.5163 33.7834 32.7435 33.8193 32.9948 33.821C33.1948 33.8223 33.3781 33.8013 33.5447 33.7582C33.7114 33.7132 33.8569 33.6496 33.9814 33.5672C34.1058 33.4848 34.2073 33.3855 34.2859 33.2692C34.3646 33.1511 34.4167 33.0187 34.4425 32.872L32.993 32.8626L32.9975 32.1697L35.2035 32.184L35.2035 32.1866L35.2062 32.184C35.249 32.3967 35.261 32.6038 35.242 32.8054C35.2248 33.0053 35.1775 33.1944 35.1003 33.3727C35.0248 33.5491 34.9211 33.7113 34.7892 33.8591C34.6572 34.0069 34.4998 34.1342 34.3168 34.241C34.1338 34.346 33.9262 34.4279 33.694 34.4865C33.4618 34.5434 33.2076 34.571 32.9316 34.5692C32.5458 34.5667 32.2001 34.5078 31.8947 34.3926C31.591 34.2774 31.3336 34.1208 31.1225 33.923C30.9114 33.7252 30.7501 33.4941 30.6385 33.2297C30.5287 32.9652 30.4748 32.6835 30.4768 32.3844Z" fill="white"/>
<path d="M29.3418 30.3408L30.1886 30.3463L30.1618 34.4955L29.315 34.49L29.3418 30.3408Z" fill="white"/>
<path d="M24.9609 30.3125L26.4821 30.3223C26.9263 30.3252 27.3118 30.3755 27.6386 30.4732C27.9653 30.5708 28.2352 30.7097 28.4482 30.8899C28.663 31.0683 28.8218 31.2852 28.9245 31.5407C29.0291 31.7945 29.0803 32.0798 29.0783 32.3965C29.0763 32.6974 29.0223 32.9758 28.9162 33.2317C28.8102 33.4859 28.6495 33.7061 28.4341 33.8923C28.2188 34.0768 27.9471 34.221 27.619 34.3251C27.2909 34.4274 26.9047 34.4771 26.4605 34.4742L24.9341 34.4617L24.9609 30.3125ZM26.667 33.7455C26.9183 33.7471 27.1389 33.7167 27.3286 33.6542C27.5184 33.59 27.6765 33.4989 27.8029 33.3812C27.9311 33.2634 28.0276 33.1207 28.0924 32.953C28.1572 32.7853 28.1903 32.5979 28.1916 32.3908C28.1929 32.1873 28.1623 32.0039 28.0996 31.8407C28.037 31.6757 27.9423 31.5361 27.8156 31.4221C27.6907 31.3062 27.5338 31.2167 27.3448 31.1535C27.1558 31.0904 26.9357 31.058 26.6844 31.0564L25.7977 31.0506L25.7803 33.7398L26.667 33.7455Z" fill="white"/>
<path d="M23.0096 0H1.091V5.46617H13.6942L4.37879 14.2121C4.37879 14.2121 0 17.8832 0 23.5192C0 29.532 6.40775 31.7563 6.40775 31.7563C11.9466 33.4904 18.0779 32.2504 20.8178 30.6106C26.425 27.0079 29.2639 24.6954 33.969 20.2248L41.0925 28.4241L47.9484 28.4896L38.3527 16.3985L47.1201 7.65264H40.5445C32.3107 15.1719 27.3802 19.537 18.0779 25.691C16.2909 26.8791 11.4036 28.6297 8.03683 25.691C5.30027 23.3024 7.4938 19.7003 8.57986 18.4252C10.4262 16.2575 23.0096 4.37294 23.0096 4.37294V0Z" fill="white"/>
<path d="M24.6387 0H30.285V28.4885H24.6387V0Z" fill="white"/>
<path d="M47.7383 7.44287H53.3846V28.4884H47.7383V7.44287Z" fill="white"/>
<path d="M49.0215 5.64624L54.7291 -0.000119936L77.2533 -0.000119967L77.2533 5.64624L49.0215 5.64624Z" fill="white"/>
<path d="M65.915 6.92969C77.8578 6.92969 76.9812 19.5827 76.9812 19.5827H60.6557C60.6557 19.5827 61.4228 24.273 66.6819 24.1639C70.6179 24.0823 72.2628 22.1 72.2699 22.0915L75.3377 25.4729C75.3302 25.4835 73.0264 28.7452 66.6819 28.7452C54.1943 28.7451 54.4103 17.7336 54.4104 17.7284C54.4104 17.7284 54.4105 6.92972 65.915 6.92969ZM65.8054 11.4019C60.5475 11.2905 60.5462 16.0899 60.5462 16.0922H71.2838C71.2838 16.0922 71.5029 11.4019 65.8054 11.4019Z" fill="white"/>
</svg>
