<svg width="77" height="35" viewBox="0 0 77 35" fill="none" xmlns="http://www.w3.org/2000/svg">
<path d="M74.3574 33.6448L72.5703 30.5215L73.5202 30.5276L74.7777 32.8881L76.0498 30.544L76.9997 30.5501L75.1962 33.6449L75.1895 34.6742L74.3508 34.6688L74.3574 33.6448Z" fill="white"/>
<path d="M68.3576 32.537C68.3595 32.2425 68.4168 31.9685 68.5296 31.7152C68.6424 31.4602 68.8043 31.2398 69.0154 31.0542C69.2283 30.8668 69.4868 30.7203 69.7909 30.6147C70.0968 30.509 70.442 30.4575 70.8265 30.46C71.1635 30.4621 71.4719 30.4985 71.752 30.5691C72.0338 30.638 72.2951 30.7429 72.5358 30.8838L72.1454 31.5163C72.0734 31.4682 71.9899 31.4254 71.8949 31.3877C71.8016 31.35 71.7013 31.3185 71.5938 31.2931C71.4881 31.266 71.378 31.245 71.2635 31.2301C71.1507 31.2153 71.0387 31.2075 70.9276 31.2068C70.6594 31.2051 70.4202 31.237 70.2099 31.3027C69.9995 31.3666 69.8216 31.4581 69.6762 31.5771C69.5326 31.6944 69.4223 31.8357 69.3454 32.001C69.2702 32.1646 69.232 32.3451 69.2307 32.5427C69.2294 32.7473 69.267 32.9354 69.3435 33.107C69.42 33.2786 69.5311 33.4275 69.6767 33.5537C69.8241 33.6782 70.0034 33.7763 70.2146 33.8483C70.4276 33.9184 70.6681 33.9544 70.9363 33.9561C71.058 33.9569 71.1789 33.9489 71.2989 33.932C71.419 33.9151 71.5347 33.8921 71.646 33.8628C71.7591 33.8318 71.8678 33.7954 71.9722 33.7538C72.0765 33.7104 72.1739 33.6634 72.2642 33.6128L72.6464 34.2503C72.4196 34.3935 72.1578 34.5056 71.861 34.5866C71.5641 34.6658 71.249 34.7043 70.9156 34.7022C70.4904 34.6994 70.1177 34.6423 69.7974 34.5309C69.4771 34.4177 69.2099 34.2643 68.9959 34.0706C68.782 33.8752 68.6212 33.6466 68.5135 33.3848C68.4076 33.1213 68.3556 32.8387 68.3576 32.537Z" fill="white"/>
<path d="M63.6855 30.4641L64.5243 30.4695L67.0928 31.8356L67.1015 30.4861L67.9403 30.4915L67.9135 34.6272L67.0748 34.6218L67.087 32.7246L64.5185 31.3665L64.4976 34.6051L63.6588 34.5997L63.6855 30.4641Z" fill="white"/>
<path d="M59.6699 30.4381L63.1917 30.4609L63.1869 31.1964L60.5039 31.1791L60.4986 32.0046L62.8747 32.02L62.8702 32.7106L60.4941 32.6952L60.4867 33.8462L63.2253 33.8639L63.2205 34.5969L59.6432 34.5737L59.6699 30.4381Z" fill="white"/>
<path d="M54.4436 32.4339C54.4455 32.1428 54.5019 31.8715 54.6129 31.62C54.7239 31.3666 54.885 31.1472 55.0961 30.9616C55.3072 30.7759 55.5657 30.6303 55.8716 30.5247C56.1792 30.4191 56.5306 30.3675 56.9257 30.3701C57.0686 30.371 57.2114 30.3799 57.3542 30.3967C57.4988 30.4117 57.6406 30.4356 57.7798 30.4682C57.9207 30.5009 58.0571 30.5423 58.1891 30.5926C58.3229 30.6411 58.4495 30.6992 58.569 30.767L58.1786 31.3996C58.1065 31.3568 58.0248 31.3183 57.9333 31.2842C57.8418 31.2483 57.7432 31.2186 57.6375 31.195C57.5336 31.1696 57.4252 31.1504 57.3124 31.1373C57.2013 31.1242 57.0894 31.1173 56.9765 31.1166C56.7154 31.1149 56.4823 31.1469 56.2773 31.2126C56.0722 31.2766 55.8988 31.3681 55.7569 31.4871C55.615 31.6044 55.5065 31.7457 55.4313 31.911C55.3562 32.0764 55.3179 32.2578 55.3167 32.4554C55.3153 32.66 55.3529 32.8481 55.4294 33.0197C55.5059 33.1913 55.6152 33.3393 55.7573 33.4637C55.8994 33.5881 56.0717 33.6863 56.2741 33.7581C56.4765 33.8282 56.7029 33.8641 56.9534 33.8657C57.1527 33.867 57.3354 33.8461 57.5015 33.8031C57.6677 33.7583 57.8127 33.6949 57.9367 33.6128C58.0607 33.5306 58.1619 33.4316 58.2403 33.3157C58.3187 33.198 58.3707 33.0661 58.3963 32.9198L56.9516 32.9105L56.9561 32.2199L59.1549 32.2341L59.1549 32.2367L59.1575 32.2341C59.2003 32.4461 59.2122 32.6525 59.1932 32.8535C59.1761 33.0527 59.129 33.2412 59.052 33.4189C58.9767 33.5948 58.8734 33.7564 58.7419 33.9037C58.6104 34.0511 58.4535 34.1779 58.2711 34.2844C58.0887 34.389 57.8818 34.4706 57.6503 34.5291C57.4189 34.5858 57.1655 34.6133 56.8904 34.6115C56.5058 34.609 56.1613 34.5503 55.8569 34.4355C55.5542 34.3206 55.2977 34.1646 55.0873 33.9674C54.8768 33.7703 54.716 33.5399 54.6049 33.2763C54.4954 33.0128 54.4417 32.732 54.4436 32.4339Z" fill="white"/>
<path d="M51.6941 30.3866L52.5831 30.3923L54.5568 34.5409L53.6756 34.5352L53.3494 33.8372L50.9336 33.8216L50.609 34.5154L49.7252 34.5097L51.6941 30.3866ZM53.0231 33.1444L52.1409 31.26L51.2583 33.133L53.0231 33.1444Z" fill="white"/>
<path d="M45.4023 30.3459L46.2411 30.3514L46.2191 33.7514L48.6243 33.767L48.6196 34.5025L45.3756 34.4816L45.4023 30.3459Z" fill="white"/>
<path d="M42.3562 30.3263L43.2452 30.332L45.2189 34.4806L44.3378 34.4749L44.0115 33.7769L41.5957 33.7612L41.2711 34.4551L40.3873 34.4494L42.3562 30.3263ZM43.6852 33.0841L42.803 31.1997L41.9204 33.0727L43.6852 33.0841Z" fill="white"/>
<path d="M38.1665 31.0347L36.6398 31.0249L36.6445 30.2893L40.5367 30.3145L40.532 31.05L39.0053 31.0402L38.9833 34.4402L38.1445 34.4348L38.1665 31.0347Z" fill="white"/>
<path d="M35.498 30.2819L36.3421 30.2874L36.3154 34.423L35.4713 34.4176L35.498 30.2819Z" fill="white"/>
<path d="M30.3772 32.2784C30.3791 31.9873 30.4355 31.716 30.5465 31.4645C30.6575 31.2112 30.8186 30.9917 31.0297 30.8061C31.2408 30.6205 31.4993 30.4749 31.8052 30.3692C32.1128 30.2636 32.4642 30.2121 32.8593 30.2146C33.0022 30.2155 33.145 30.2244 33.2878 30.2412C33.4324 30.2563 33.5742 30.2801 33.7134 30.3128C33.8543 30.3454 33.9907 30.3869 34.1227 30.4371C34.2564 30.4856 34.3831 30.5438 34.5026 30.6116L34.1122 31.2441C34.0401 31.2013 33.9584 31.1628 33.8668 31.1287C33.7753 31.0929 33.6768 31.0631 33.5711 31.0395C33.4671 31.0141 33.3588 30.9949 33.246 30.9818C33.1349 30.9688 33.0229 30.9619 32.91 30.9611C32.649 30.9595 32.4159 30.9915 32.2109 31.0572C32.0058 31.1211 31.8324 31.2126 31.6905 31.3316C31.5486 31.4489 31.4401 31.5902 31.3649 31.7556C31.2897 31.9209 31.2515 32.1023 31.2503 32.2999C31.2489 32.5045 31.2865 32.6926 31.363 32.8643C31.4395 33.0359 31.5488 33.1839 31.6909 33.3083C31.833 33.4327 32.0052 33.5308 32.2076 33.6027C32.4101 33.6728 32.6365 33.7086 32.887 33.7103C33.0863 33.7115 33.269 33.6907 33.4351 33.6477C33.6012 33.6029 33.7463 33.5394 33.8703 33.4573C33.9943 33.3752 34.0955 33.2762 34.1739 33.1603C34.2523 33.0426 34.3043 32.9106 34.3299 32.7644L32.8852 32.755L32.8897 32.0644L35.0885 32.0786L35.0885 32.0813L35.0911 32.0786C35.1339 32.2906 35.1458 32.4971 35.1268 32.6981C35.1097 32.8973 35.0626 33.0857 34.9856 33.2634C34.9103 33.4393 34.807 33.6009 34.6755 33.7483C34.544 33.8956 34.3871 34.0225 34.2047 34.1289C34.0223 34.2336 33.8154 34.3152 33.5839 34.3736C33.3525 34.4304 33.0991 34.4578 32.824 34.456C32.4394 34.4536 32.0949 34.3949 31.7905 34.28C31.4878 34.1652 31.2313 34.0092 31.0209 33.812C30.8104 33.6148 30.6496 33.3844 30.5384 33.1209C30.429 32.8573 30.3753 32.5765 30.3772 32.2784Z" fill="white"/>
<path d="M29.2441 30.2415L30.0882 30.247L30.0615 34.3826L29.2174 34.3772L29.2441 30.2415Z" fill="white"/>
<path d="M24.8789 30.2133L26.395 30.2231C26.8378 30.226 27.222 30.2761 27.5478 30.3735C27.8735 30.4708 28.1425 30.6093 28.3548 30.7888C28.5688 30.9666 28.7271 31.1828 28.8295 31.4375C28.9337 31.6904 28.9848 31.9748 28.9828 32.2905C28.9808 32.5904 28.927 32.8679 28.8213 33.123C28.7156 33.3764 28.5554 33.5958 28.3407 33.7814C28.1261 33.9653 27.8553 34.109 27.5282 34.2128C27.2012 34.3147 26.8163 34.3643 26.3736 34.3614L24.8522 34.349L24.8789 30.2133ZM26.5794 33.6351C26.8299 33.6367 27.0497 33.6064 27.2388 33.5441C27.428 33.48 27.5856 33.3893 27.7116 33.272C27.8394 33.1546 27.9356 33.0123 28.0001 32.8452C28.0647 32.678 28.0977 32.4912 28.099 32.2848C28.1003 32.082 28.0698 31.8992 28.0073 31.7365C27.9449 31.572 27.8505 31.433 27.7242 31.3192C27.5997 31.2038 27.4433 31.1146 27.255 31.0516C27.0666 30.9886 26.8472 30.9564 26.5967 30.9547L25.713 30.949L25.6956 33.6294L26.5794 33.6351Z" fill="white"/>
<path d="M22.9343 6.10352e-05H1.08742V5.44834H13.6494L4.36446 14.1656C4.36446 14.1656 0 17.8248 0 23.4423C0 29.4354 6.38677 31.6524 6.38677 31.6524C11.9075 33.3809 18.0188 32.1449 20.7496 30.5104C26.3385 26.9196 29.1682 24.6147 33.8578 20.1587L40.958 28.3311L47.7915 28.3964L38.2272 16.3449L46.9659 7.62766H40.4118C32.205 15.1223 27.2906 19.4731 18.0188 25.607C16.2376 26.7912 11.3663 28.5361 8.01053 25.607C5.28292 23.2262 7.46928 19.6358 8.55178 18.3649C10.392 16.2044 22.9343 4.35869 22.9343 4.35869V6.10352e-05Z" fill="white"/>
<path d="M24.5586 6.10352e-05H30.1865V28.3953H24.5586V6.10352e-05Z" fill="white"/>
<path d="M47.582 7.41858H53.2099V28.3952H47.582V7.41858Z" fill="white"/>
<path d="M48.8594 5.62793L54.5483 4.88656e-05L76.9988 4.88379e-05L76.9988 5.62793L48.8594 5.62793Z" fill="white"/>
<path d="M65.6996 6.90698C77.6033 6.90698 76.7296 19.5186 76.7296 19.5186H60.4576C60.4576 19.5186 61.2221 24.1935 66.464 24.0848C70.3871 24.0034 72.0267 22.0276 72.0337 22.0191L75.0915 25.3895C75.084 25.4001 72.7878 28.6511 66.464 28.6511C54.0173 28.651 54.2326 17.6756 54.2327 17.6703C54.2327 17.6703 54.2327 6.90702 65.6996 6.90698ZM65.5904 11.3645C60.3496 11.2535 60.3484 16.0372 60.3484 16.0395H71.0508C71.0508 16.0395 71.2692 11.3645 65.5904 11.3645Z" fill="white"/>
</svg>
